# xmcd
#
# Track frame offsets:
# 150
# 16527
# 28797
# 58245
# 75012
# 97417
# 118072
# 143492
# 162830
#
# Disc length: 2426 seconds
#
#
# Revision: 0
# Processed by: cddbd v1.5.2PL0 Copyright (c) Steve Scherf et al.
# Submitted via: Nero 7, 11, 10, 0 
#
DISCID=67097809
DTITLE=Rhythm Kings - Just Got Lucky
DYEAR=1994
DGENRE=Blues
TTITLE0=Running Blue
TTITLE1=Just Got Lucky
TTITLE2=Not My Problem
TTITLE3=Tick Tock
TTITLE4=She Caught Me Katy
TTITLE5=She's My Girl
TTITLE6=When Love Slips Away
TTITLE7=Thin Line
TTITLE8=I Know
EXTD=
EXTT0=Running Blue
EXTT1=Just Got Lucky
EXTT2=Not My Problem
EXTT3=Tick Tock
EXTT4=She Caught Me Katy
EXTT5=She's My Girl
EXTT6=When Love Slips Away
EXTT7=Thin Line
EXTT8=I Know
PLAYORDER=
